<svg width="200" height="200" viewBox="0 0 200 200" fill="none" xmlns="http://www.w3.org/2000/svg">
<path fill-rule="evenodd" clip-rule="evenodd" d="M98.598 35.6362C144.424 35.6362 181.574 72.4022 181.574 117.755C181.574 163.108 144.424 199.873 98.598 199.873C52.772 199.873 15.623 163.108 15.623 117.755C15.623 72.4022 52.772 35.6362 98.598 35.6362Z" fill="#66E4FF"/>
<path fill-rule="evenodd" clip-rule="evenodd" d="M93.1855 139.926H99.2375V94.4678H93.1855V139.926Z" fill="#D8BE9C"/>
<path fill-rule="evenodd" clip-rule="evenodd" d="M93.1855 102.591L99.2375 99.8483V94.4683H93.1855V102.591Z" fill="#C3A885"/>
<path fill-rule="evenodd" clip-rule="evenodd" d="M62.428 152C62.428 148.283 59.384 145.271 55.629 145.271C54.868 145.271 54.139 145.4 53.456 145.628C53.215 140.667 49.074 136.718 44.001 136.718C43.168 136.718 42.36 136.825 41.59 137.025C40.29 132.053 35.727 128.381 30.297 128.381C24.893 128.381 20.348 132.019 19.024 136.954C18.957 136.953 18.891 136.949 18.824 136.949C14.591 136.949 11.034 139.818 10.03 143.698C9.313 143.481 8.551 143.364 7.762 143.364C3.475 143.364 0 146.804 0 151.047C0 155.289 3.475 158.729 7.762 158.729H55.718V158.724C59.432 158.677 62.428 155.687 62.428 152Z" fill="white"/>
<path fill-rule="evenodd" clip-rule="evenodd" d="M55.718 156.842V156.847H7.762C3.797 156.847 0.529 153.904 0.06 150.107C0.022 150.414 0 150.728 0 151.046C0 155.288 3.475 158.728 7.762 158.728H55.718V158.723C59.431 158.676 62.428 155.686 62.428 151.999C62.428 151.678 62.4 151.364 62.354 151.056C61.896 154.297 59.11 156.798 55.718 156.842Z" fill="#D9F8FF"/>
<path fill-rule="evenodd" clip-rule="evenodd" d="M192.719 86.4456C191.907 86.4456 191.129 86.5846 190.401 86.8276C190.143 81.5356 185.727 77.3226 180.316 77.3226C179.428 77.3226 178.566 77.4376 177.745 77.6506C176.358 72.3486 171.491 68.4316 165.699 68.4316C159.935 68.4316 155.089 72.3106 153.676 77.5756C153.605 77.5746 153.534 77.5706 153.463 77.5706C148.948 77.5706 145.154 80.6306 144.083 84.7686C143.318 84.5376 142.506 84.4126 141.664 84.4126C137.092 84.4126 133.385 88.0806 133.385 92.6056C133.385 97.1316 137.092 100.8 141.664 100.8H192.814C196.774 100.744 199.97 97.5556 199.97 93.6226C199.97 89.6596 196.723 86.4456 192.719 86.4456Z" fill="white"/>
<path fill-rule="evenodd" clip-rule="evenodd" d="M192.815 98.7885V98.7935H141.666C137.437 98.7935 133.952 95.6545 133.451 91.6035C133.41 91.9335 133.387 92.2675 133.387 92.6055C133.387 97.1315 137.094 100.8 141.666 100.8H192.815V100.796C196.776 100.745 199.971 97.5555 199.971 93.6235C199.971 93.2805 199.942 92.9455 199.893 92.6165C199.404 96.0745 196.433 98.7415 192.815 98.7885Z" fill="#D9F8FF"/>
<path fill-rule="evenodd" clip-rule="evenodd" d="M62.428 152C62.428 148.283 59.384 145.271 55.629 145.271C54.868 145.271 54.139 145.4 53.456 145.628C53.322 142.861 51.975 140.41 49.929 138.782C48.307 137.49 46.245 136.718 44.001 136.718C43.168 136.718 51.337 158.729 51.337 158.729H55.718V158.724C59.432 158.677 62.428 155.687 62.428 152Z" fill="#ADC6D6" fill-opacity="0.3"/>
<path fill-rule="evenodd" clip-rule="evenodd" d="M55.718 156.842V156.847H7.762C3.797 156.847 0.529 153.904 0.06 150.107C0.022 150.414 0 150.728 0 151.046C0 155.288 3.475 158.728 7.762 158.728H55.718V158.723C59.431 158.676 62.428 155.686 62.428 151.999C62.428 151.678 62.4 151.364 62.354 151.056C61.896 154.297 59.11 156.798 55.718 156.842Z" fill="#D9F9FF" fill-opacity="0.3"/>
<path fill-rule="evenodd" clip-rule="evenodd" d="M131.913 133.667C131.913 129.703 128.666 126.49 124.662 126.49C123.85 126.49 123.072 126.628 122.344 126.871C122.086 121.579 117.67 117.367 112.259 117.367C111.37 117.367 110.509 117.481 109.688 117.695C108.301 112.392 103.434 108.475 97.6421 108.475C91.8781 108.475 87.0311 112.355 85.6191 117.62C85.5481 117.618 85.4771 117.614 85.4061 117.614C80.8901 117.614 77.0971 120.674 76.0261 124.813C75.2611 124.581 74.4491 124.456 73.6071 124.456C69.0351 124.456 65.3281 128.125 65.3281 132.65C65.3281 137.175 69.0351 140.844 73.6071 140.844H124.757V140.839C128.717 140.788 131.913 137.599 131.913 133.667Z" fill="white"/>
<path fill-rule="evenodd" clip-rule="evenodd" d="M124.756 138.831V138.836H73.6071C69.3781 138.836 65.8931 135.698 65.3921 131.647C65.3511 131.976 65.3281 132.31 65.3281 132.649C65.3281 137.174 69.0341 140.843 73.6071 140.843H124.756V140.838C128.716 140.787 131.912 137.598 131.912 133.666C131.912 133.323 131.883 132.988 131.834 132.66C131.345 136.117 128.374 138.785 124.756 138.831Z" fill="#D9F8FF"/>
<path fill-rule="evenodd" clip-rule="evenodd" d="M96.0583 152.46C94.3643 152.011 93.3503 150.272 93.1133 148.4L103.478 110.114C103.478 110.114 106.603 111.702 106.869 112.53C110.032 122.379 96.0583 152.46 96.0583 152.46Z" fill="#ADC6D6" fill-opacity="0.3"/>
<path fill-rule="evenodd" clip-rule="evenodd" d="M148.599 123.454L137.871 163.077C137.417 164.753 135.66 165.758 133.966 165.308L97.0088 155.508C95.3158 155.058 94.3008 153.319 94.7548 151.643L108.784 99.8277C109.237 98.1517 110.995 97.1467 112.689 97.5967L137.326 104.131L137.105 117.139L148.599 123.454Z" fill="#D0ECFA"/>
<path fill-rule="evenodd" clip-rule="evenodd" d="M148.6 123.454L138.697 160.029C138.244 161.705 136.486 162.71 134.792 162.261L97.836 152.46C96.142 152.011 95.127 150.271 95.581 148.596L108.785 99.8277C109.238 98.1517 110.996 97.1467 112.69 97.5967L137.327 104.131L137.106 117.139L148.6 123.454Z" fill="#E0F3FF"/>
<path fill-rule="evenodd" clip-rule="evenodd" d="M148.187 124.977C148.296 124.574 148.239 124.144 148.027 123.782L137.882 106.387C137.67 106.026 137.322 105.762 136.914 105.654L135.374 105.246L131.661 118.961C131.207 120.638 132.219 122.376 133.909 122.825L147.774 126.501L148.187 124.977Z" fill="#C6DCEA"/>
<path fill-rule="evenodd" clip-rule="evenodd" d="M148.599 123.454C148.708 123.05 148.651 122.62 148.439 122.259L138.294 104.863C138.082 104.502 137.734 104.238 137.326 104.131L135.786 103.723L132.073 117.438C131.619 119.114 132.631 120.852 134.321 121.301L148.186 124.977L148.599 123.454Z" fill="white"/>
<path fill-rule="evenodd" clip-rule="evenodd" d="M138.425 130.555L110.707 123.205L111.12 121.681L138.838 129.032L138.425 130.555Z" fill="#ACC5D6"/>
<path fill-rule="evenodd" clip-rule="evenodd" d="M127.535 134.202L109.057 129.302L109.469 127.777L127.948 132.678L127.535 134.202Z" fill="#ACC5D6"/>
<path fill-rule="evenodd" clip-rule="evenodd" d="M135.124 142.748L107.406 135.397L107.819 133.873L135.537 141.224L135.124 142.748Z" fill="#ACC5D6"/>
<path fill-rule="evenodd" clip-rule="evenodd" d="M131.823 154.939L104.105 147.588L104.518 146.065L132.236 153.415L131.823 154.939Z" fill="#ACC5D6"/>
<path fill-rule="evenodd" clip-rule="evenodd" d="M124.235 146.393L105.756 141.493L106.169 139.969L124.648 144.869L124.235 146.393Z" fill="#ACC5D6"/>
<path fill-rule="evenodd" clip-rule="evenodd" d="M87.4778 106.572L98.2198 146.246C98.6738 147.925 97.6578 149.666 95.9618 150.116L58.9578 159.928C57.2618 160.379 55.5018 159.373 55.0478 157.695L41.0008 105.813C40.5468 104.134 41.5628 102.393 43.2588 101.943L67.9278 95.4009L74.3168 106.791L87.4778 106.572Z" fill="#D0ECFA"/>
<path fill-rule="evenodd" clip-rule="evenodd" d="M87.4778 106.572L97.3928 143.194C97.8478 144.873 96.8318 146.614 95.1358 147.064L58.1318 156.877C56.4358 157.327 54.6758 156.321 54.2218 154.642L41.0008 105.813C40.5468 104.134 41.5628 102.393 43.2588 101.943L67.9278 95.4009L74.3168 106.791L87.4778 106.572Z" fill="#E1F3FF"/>
<path fill-rule="evenodd" clip-rule="evenodd" d="M87.8908 108.098C87.7808 107.695 87.5138 107.35 87.1468 107.142L69.5508 97.0835C69.1838 96.8745 68.7488 96.8195 68.3408 96.9275L66.7988 97.3355L70.5168 111.07C70.9718 112.748 72.7278 113.755 74.4208 113.306L88.3038 109.624L87.8908 108.098Z" fill="#ACC5D6"/>
<path fill-rule="evenodd" clip-rule="evenodd" d="M87.4787 106.572C87.3697 106.168 87.1017 105.824 86.7357 105.615L69.1387 95.5569C68.7717 95.3489 68.3367 95.2929 67.9287 95.4009L66.3867 95.8099L70.1057 109.544C70.5597 111.222 72.3167 112.228 74.0087 111.779L87.8917 108.097L87.4787 106.572Z" fill="white"/>
<path fill-rule="evenodd" clip-rule="evenodd" d="M82.6601 119.297L70.3251 122.568L69.9121 121.042L82.2471 117.772L82.6601 119.297Z" fill="#ACC5D6"/>
<path fill-rule="evenodd" clip-rule="evenodd" d="M77.7333 125.511L71.5663 127.146L71.1523 125.62L77.3203 123.985L77.7333 125.511Z" fill="#ACC5D6"/>
<path fill-rule="evenodd" clip-rule="evenodd" d="M70.0231 127.555L63.8561 129.191L62.2031 123.087L68.3701 121.451L70.0231 127.555Z" fill="#ACC5D6"/>
<path fill-rule="evenodd" clip-rule="evenodd" d="M85.1406 128.454L72.8056 131.725L72.3926 130.198L84.7276 126.928L85.1406 128.454Z" fill="#ACC5D6"/>
<path fill-rule="evenodd" clip-rule="evenodd" d="M80.2119 134.667L74.0449 136.303L73.6309 134.776L79.7989 133.141L80.2119 134.667Z" fill="#ACC5D6"/>
<path fill-rule="evenodd" clip-rule="evenodd" d="M56.9727 134.287L63.1397 132.652L64.7927 138.756L58.6257 140.391L56.9727 134.287Z" fill="#ACC5D6"/>
<path fill-rule="evenodd" clip-rule="evenodd" d="M87.6191 137.609L75.2841 140.88L74.8711 139.354L87.2061 136.083L87.6191 137.609Z" fill="#ACC5D6"/>
<path fill-rule="evenodd" clip-rule="evenodd" d="M82.6904 143.822L76.5234 145.458L76.1094 143.931L82.2774 142.297L82.6904 143.822Z" fill="#ACC5D6"/>
<path fill-rule="evenodd" clip-rule="evenodd" d="M60.6611 123.496L54.4941 125.132L56.1461 131.235L62.3141 129.6L60.6611 123.496ZM59.5321 125.432L60.3591 128.483L57.2751 129.301L56.4491 126.249L59.5321 125.432Z" fill="#ACC5D6"/>
<path fill-rule="evenodd" clip-rule="evenodd" d="M70.8506 130.607L64.6836 132.243L66.3356 138.346L72.5036 136.711L70.8506 130.607ZM69.7216 132.542L70.5486 135.594L67.4646 136.412L66.6386 133.36L69.7216 132.542Z" fill="#ACC5D6"/>
<path fill-rule="evenodd" clip-rule="evenodd" d="M65.6201 141.807L59.4531 143.443L61.1051 149.546L67.2731 147.911L65.6201 141.807ZM64.4911 143.742L65.3181 146.793L62.2341 147.612L61.4081 144.56L64.4911 143.742Z" fill="#ACC5D6"/>
<path fill-rule="evenodd" clip-rule="evenodd" d="M74.9821 145.867L68.8151 147.502L67.1621 141.398L73.3291 139.763L74.9821 145.867Z" fill="#ACC5D6"/>
<path fill-rule="evenodd" clip-rule="evenodd" d="M104.965 142.725C107.301 142.105 108.701 139.706 108.075 137.394L102.773 118.79H77.4891H75.3641H71.2761C67.8531 118.79 65.0521 119.609 65.0521 122.997C61.6281 122.997 58.8281 125.769 58.8281 129.158L58.9541 160.017L104.965 142.725Z" fill="#ADC6D6" fill-opacity="0.3"/>
<path fill-rule="evenodd" clip-rule="evenodd" d="M121.134 169.484H71.4321C68.9471 169.484 66.9141 167.471 66.9141 165.012V122.531C66.9141 120.071 68.9471 118.059 71.4321 118.059H121.134C123.619 118.059 125.653 120.071 125.653 122.531V165.012C125.653 167.471 123.619 169.484 121.134 169.484Z" fill="#CD2D28"/>
<path fill-rule="evenodd" clip-rule="evenodd" d="M125.653 173.956H66.9135C64.4285 173.956 62.3945 171.943 62.3945 169.484V127.003C62.3945 124.543 64.4285 122.531 66.9135 122.531H125.653C128.138 122.531 130.171 124.543 130.171 127.003V169.484C130.171 171.943 128.138 173.956 125.653 173.956Z" fill="#E4E4E4"/>
<path fill-rule="evenodd" clip-rule="evenodd" d="M125.653 169.484H66.9135C64.4285 169.484 62.3945 167.471 62.3945 165.012V127.003C62.3945 124.543 64.4285 122.531 66.9135 122.531H125.653C128.138 122.531 130.171 124.543 130.171 127.003V165.012C130.171 167.471 128.138 169.484 125.653 169.484Z" fill="white"/>
<path fill-rule="evenodd" clip-rule="evenodd" d="M62.3945 140.418V127.003C62.3945 124.543 64.4275 122.531 66.9135 122.531H125.653C128.138 122.531 130.171 124.543 130.171 127.003V140.418H62.3945Z" fill="#FF3A30"/>
<path fill-rule="evenodd" clip-rule="evenodd" d="M78.209 127.003H80.468V115.823H78.209V127.003Z" fill="#F7F7F7"/>
<path fill-rule="evenodd" clip-rule="evenodd" d="M112.098 127.003H114.357V115.823H112.098V127.003Z" fill="#F7F7F7"/>
<path fill-rule="evenodd" clip-rule="evenodd" d="M75.9492 127.003H78.2082V118.06H75.9492V127.003Z" fill="#303030" fill-opacity="0.3"/>
<path fill-rule="evenodd" clip-rule="evenodd" d="M109.838 127.003H112.097V118.06H109.838V127.003Z" fill="#303030" fill-opacity="0.3"/>
<path fill-rule="evenodd" clip-rule="evenodd" d="M130.17 157.858C130.082 157.856 129.994 157.851 129.906 157.851C124.302 157.851 119.594 161.648 118.264 166.785C117.315 166.498 116.307 166.342 115.263 166.342C110.481 166.342 106.462 169.575 105.316 173.953C105.101 174.77 130.261 172.564 130.261 172.564C130.427 164.677 130.594 156.279 130.17 157.858Z" fill="#ADC6D6" fill-opacity="0.3"/>
<path fill-rule="evenodd" clip-rule="evenodd" d="M189.661 180.708C189.661 175.789 185.631 171.802 180.661 171.802C179.654 171.802 178.689 171.973 177.785 172.274C177.465 165.706 171.984 160.479 165.269 160.479C164.166 160.479 163.096 160.621 162.077 160.886C160.357 154.304 154.316 149.442 147.128 149.442C139.974 149.442 133.959 154.259 132.205 160.793C132.118 160.791 132.03 160.786 131.942 160.786C126.337 160.786 121.629 164.583 120.3 169.72C119.35 169.433 118.343 169.277 117.298 169.277C111.623 169.277 107.023 173.83 107.023 179.446C107.023 185.062 111.623 189.615 117.298 189.615H180.779V189.609C185.694 189.546 189.661 185.588 189.661 180.708Z" fill="white"/>
<path fill-rule="evenodd" clip-rule="evenodd" d="M180.779 187.119V187.125H117.298C112.05 187.125 107.724 183.23 107.102 178.203C107.052 178.61 107.023 179.025 107.023 179.446C107.023 185.062 111.623 189.615 117.298 189.615H180.779V189.609C185.694 189.546 189.661 185.588 189.661 180.708C189.661 180.283 189.624 179.868 189.563 179.46C188.956 183.751 185.269 187.061 180.779 187.119Z" fill="#D9F8FF"/>
<path fill-rule="evenodd" clip-rule="evenodd" d="M129.104 38.941C129.104 15.819 114.173 0.000976562 95.941 0.000976562H95.916C105.378 0.0129766 110.319 15.83 110.319 38.941C110.319 71.938 97.679 95.8 97.679 95.8H99.476C99.476 95.8 129.104 71.938 129.104 38.941Z" fill="#EFE0F3"/>
<path fill-rule="evenodd" clip-rule="evenodd" d="M95.8633 0.00146484C77.6713 0.0414648 62.7793 15.8525 62.7793 38.9405C62.7793 71.9385 93.1073 95.8005 93.1073 95.8005H93.8283C93.8283 95.8005 81.4883 71.9385 81.4883 38.9405C81.4883 15.8525 86.4203 0.0414648 95.8633 0.00146484Z" fill="#EFE0F3"/>
<path fill-rule="evenodd" clip-rule="evenodd" d="M95.9414 0.000488281C114.172 0.000488281 129.104 15.8185 129.104 38.9405C129.104 61.0925 113.461 79.1275 104.624 88.5895C100.297 93.2225 99.2754 95.8005 99.2754 95.8005H99.8144C99.8144 95.8005 101.474 93.6295 106.587 89.6925C118.427 80.5755 140.057 61.9855 140.057 38.9405C140.057 15.8185 118.649 0.000488281 95.9414 0.000488281Z" fill="#C474D2"/>
<path fill-rule="evenodd" clip-rule="evenodd" d="M95.9163 0.000488281C95.8983 0.000488281 95.8803 0.00148828 95.8623 0.00148828C86.4193 0.0414883 81.4883 15.8525 81.4883 38.9405C81.4883 71.9385 93.2273 95.8005 93.2273 95.8005H99.3793C99.3793 95.8005 110.319 71.9385 110.319 38.9405C110.319 15.8295 105.377 0.0134883 95.9163 0.000488281Z" fill="#C474D2"/>
<path fill-rule="evenodd" clip-rule="evenodd" d="M96.5574 0.000488281C78.3264 0.000488281 63.3944 15.8185 63.3944 38.9405C63.3944 61.0925 79.0374 79.1275 87.8744 88.5895C92.2004 93.2225 93.2234 95.8005 93.2234 95.8005H92.6844C92.6844 95.8005 91.0244 93.6295 85.9114 89.6925C74.0714 80.5755 52.4414 61.9855 52.4414 38.9405C52.4414 15.8185 73.8494 0.000488281 96.5574 0.000488281Z" fill="#C474D2"/>
<path fill-rule="evenodd" clip-rule="evenodd" d="M102.815 91.646H100.678H98.2163L92.7783 91.747C92.7783 91.747 39.5783 57.1821 57.3643 20.8521C39.7453 53.4741 72.6153 79.231 87.4373 90.956C91.9243 94.5051 92.6253 95.8071 92.6253 95.8071H94.9633H97.4253H99.9623C99.9623 95.8071 102.461 92.847 105.209 90.87C108.973 88.162 112.51 85.3491 118.276 79.8561C110.319 86.3491 102.815 91.646 102.815 91.646Z" fill="#802C8E" fill-opacity="0.3"/>
</svg>
